<?xml version="1.0" standalone="no"?><svg xmlns="http://www.w3.org/2000/svg" viewBox="0 0 1440 260"><path fill="#ffffff" fill-opacity="1" d="M0,224L34.3,229.3C68.6,235,137,245,206,224C274.3,203,343,149,411,144C480,139,549,181,617,170.7C685.7,160,754,96,823,85.3C891.4,75,960,117,1029,160C1097.1,203,1166,245,1234,245.3C1302.9,245,1371,203,1406,181.3L1440,160L1440,320L1405.7,320C1371.4,320,1303,320,1234,320C1165.7,320,1097,320,1029,320C960,320,891,320,823,320C754.3,320,686,320,617,320C548.6,320,480,320,411,320C342.9,320,274,320,206,320C137.1,320,69,320,34,320L0,320Z"></path></svg>